<svg width="592" height="591" viewBox="0 0 592 591" fill="none" xmlns="http://www.w3.org/2000/svg">
<path d="M2.16067e-07 168.5H70V-5.57899e-05H220.5V168.5H312.5V293.5H220.5V408C220.5 425 223 438.833 228 449.5C233 459.833 242.167 465 255.5 465C264.5 465 272.167 463 278.5 459C284.833 455 288.667 452.333 290 451L342 559C339.667 561 332.333 564.667 320 570C308 575.333 292.667 580.167 274 584.5C255.333 588.833 234.5 591 211.5 591C170.5 591 136.667 579.5 110 556.5C83.3333 533.167 70 497.333 70 449V293.5H2.16067e-07V168.5ZM500.281 591C475.615 591 454.281 582.167 436.281 564.5C418.615 546.5 409.781 525.167 409.781 500.5C409.781 475.167 418.615 453.667 436.281 436C454.281 418 475.615 409 500.281 409C525.615 409 547.115 418 564.781 436C582.448 453.667 591.281 475.167 591.281 500.5C591.281 525.167 582.448 546.5 564.781 564.5C547.115 582.167 525.615 591 500.281 591Z" fill="white"/>
</svg>
