<svg width="2745" height="679" viewBox="0 0 2745 679" fill="none" xmlns="http://www.w3.org/2000/svg">
<path d="M2.16067e-07 256.5H70V87.9999H220.5V256.5H312.5V381.5H220.5V496C220.5 513 223 526.833 228 537.5C233 547.833 242.167 553 255.5 553C264.5 553 272.167 551 278.5 547C284.833 543 288.667 540.333 290 539L342 647C339.667 649 332.333 652.667 320 658C308 663.333 292.667 668.167 274 672.5C255.333 676.833 234.5 679 211.5 679C170.5 679 136.667 667.5 110 644.5C83.3333 621.167 70 585.333 70 537V381.5H2.16067e-07V256.5ZM716.781 667V600.5C713.781 607.167 706.115 616.833 693.781 629.5C681.781 642.167 665.781 653.667 645.781 664C625.781 674 602.448 679 575.781 679C535.781 679 500.781 669.333 470.781 650C440.781 630.333 417.448 604.167 400.781 571.5C384.115 538.5 375.781 502 375.781 462C375.781 422 384.115 385.667 400.781 353C417.448 320 440.781 293.667 470.781 274C500.781 254.333 535.781 244.5 575.781 244.5C601.448 244.5 623.948 248.667 643.281 257C662.615 265 678.281 274.667 690.281 286C702.281 297 710.615 307.167 715.281 316.5V256.5H866.281V667H716.781ZM524.781 462C524.781 480.667 529.115 497.5 537.781 512.5C546.448 527.167 557.948 538.667 572.281 547C586.948 555.333 603.115 559.5 620.781 559.5C639.115 559.5 655.281 555.333 669.281 547C683.281 538.667 694.281 527.167 702.281 512.5C710.615 497.5 714.781 480.667 714.781 462C714.781 443.333 710.615 426.667 702.281 412C694.281 397 683.281 385.333 669.281 377C655.281 368.333 639.115 364 620.781 364C603.115 364 586.948 368.333 572.281 377C557.948 385.333 546.448 397 537.781 412C529.115 426.667 524.781 443.333 524.781 462ZM1527.23 244.5C1558.23 244.5 1585.57 251 1609.23 264C1632.9 276.667 1651.4 296.333 1664.73 323C1678.4 349.667 1685.23 384 1685.23 426V667H1535.73V449C1535.73 420.333 1531.4 397.167 1522.73 379.5C1514.07 361.833 1496.9 353 1471.23 353C1455.9 353 1442.4 357 1430.73 365C1419.07 373 1410.07 384.167 1403.73 398.5C1397.4 412.5 1394.23 429.333 1394.23 449V667H1254.73V449C1254.73 420.333 1249.9 397.167 1240.23 379.5C1230.9 361.833 1214.23 353 1190.23 353C1174.9 353 1161.4 357 1149.73 365C1138.07 372.667 1129.07 383.667 1122.73 398C1116.73 412 1113.73 429 1113.73 449V667H962.734V256.5H1113.73V315C1117.73 304.667 1126.4 294.167 1139.73 283.5C1153.4 272.5 1170.23 263.333 1190.23 256C1210.23 248.333 1231.4 244.5 1253.73 244.5C1278.07 244.5 1298.4 248.167 1314.73 255.5C1331.07 262.5 1344.4 272 1354.73 284C1365.4 296 1373.9 309 1380.23 323C1384.9 311 1394.07 299 1407.73 287C1421.73 274.667 1439.07 264.5 1459.73 256.5C1480.73 248.5 1503.23 244.5 1527.23 244.5ZM1778.28 667V256.5H1930.28V667H1778.28ZM1856.28 172C1832.28 172 1811.95 163.667 1795.28 147C1778.61 130 1770.28 109.833 1770.28 86.5C1770.28 63.1666 1778.61 43 1795.28 26C1812.28 8.66662 1832.61 -5.53131e-05 1856.28 -5.53131e-05C1871.95 -5.53131e-05 1886.28 3.99995 1899.28 12C1912.28 19.6666 1922.78 30 1930.78 43C1938.78 56 1942.78 70.5 1942.78 86.5C1942.78 109.833 1934.28 130 1917.28 147C1900.28 163.667 1879.95 172 1856.28 172ZM2244 679C2199 679 2159 669.833 2124 651.5C2089.33 632.833 2062 607.333 2042 575C2022.33 542.333 2012.5 505 2012.5 463C2012.5 421 2022.33 383.667 2042 351C2062 318 2089.33 292 2124 273C2159 254 2199 244.5 2244 244.5C2289 244.5 2328.67 254 2363 273C2397.33 292 2424.17 318 2443.5 351C2462.83 383.667 2472.5 421 2472.5 463C2472.5 505 2462.83 542.333 2443.5 575C2424.17 607.333 2397.33 632.833 2363 651.5C2328.67 669.833 2289 679 2244 679ZM2244 554C2261.33 554 2276.33 550.167 2289 542.5C2301.67 534.833 2311.5 524 2318.5 510C2325.5 496 2329 480.167 2329 462.5C2329 444.5 2325.5 428.5 2318.5 414.5C2311.5 400.5 2301.67 389.5 2289 381.5C2276.33 373.5 2261.33 369.5 2244 369.5C2226.67 369.5 2211.5 373.5 2198.5 381.5C2185.83 389.5 2175.83 400.5 2168.5 414.5C2161.5 428.5 2158 444.5 2158 462.5C2158 480.167 2161.5 496 2168.5 510C2175.83 524 2185.83 534.833 2198.5 542.5C2211.5 550.167 2226.67 554 2244 554ZM2653.6 679C2628.93 679 2607.6 670.167 2589.6 652.5C2571.93 634.5 2563.1 613.167 2563.1 588.5C2563.1 563.167 2571.93 541.667 2589.6 524C2607.6 506 2628.93 497 2653.6 497C2678.93 497 2700.43 506 2718.1 524C2735.77 541.667 2744.6 563.167 2744.6 588.5C2744.6 613.167 2735.77 634.5 2718.1 652.5C2700.43 670.167 2678.93 679 2653.6 679Z" fill="#112331"/>
</svg>
